<svg xmlns="http://www.w3.org/2000/svg" viewBox="0 0 80 80" fill="none">
  <ellipse cx="40" cy="42" rx="28" ry="8" fill="none" stroke="#b89a6a" stroke-width="2"/>
  <line x1="40" y1="50" x2="40" y2="66" stroke="#b89a6a" stroke-width="2"/>
  <line x1="28" y1="63" x2="52" y2="63" stroke="#b89a6a" stroke-width="2"/>
  <rect x="32" y="36" width="16" height="12" rx="1" fill="none" stroke="#2a1a0e" stroke-width="1.2"/>
  <line x1="35" y1="40" x2="45" y2="40" stroke="#2a1a0e" stroke-width="0.8"/>
  <line x1="35" y1="43" x2="45" y2="43" stroke="#2a1a0e" stroke-width="0.8"/>
  <circle cx="16" cy="26" r="6" fill="none" stroke="#2a1a0e" stroke-width="1.8"/>
  <path d="M10 32 Q8 40 12 42 L20 42 Q24 40 22 32" fill="none" stroke="#2a1a0e" stroke-width="1.8"/>
  <path d="M20 38 Q26 38 30 38" stroke="#2a1a0e" stroke-width="2" stroke-linecap="round"/>
  <circle cx="64" cy="26" r="6" fill="none" stroke="#c4542a" stroke-width="1.8"/>
  <path d="M58 32 Q56 40 60 42 L68 42 Q72 40 70 32" fill="none" stroke="#c4542a" stroke-width="1.8"/>
  <path d="M60 38 Q54 38 50 38" stroke="#c4542a" stroke-width="2" stroke-linecap="round"/>
  <path d="M30 38 Q35 35 40 38 Q45 41 50 38" stroke="#b89a6a" stroke-width="2.5" stroke-linecap="round" fill="none"/>
  <line x1="40" y1="33" x2="40" y2="30" stroke="#b89a6a" stroke-width="1.2"/>
  <line x1="44" y1="34" x2="47" y2="31" stroke="#b89a6a" stroke-width="1.2"/>
  <line x1="36" y1="34" x2="33" y2="31" stroke="#b89a6a" stroke-width="1.2"/>
</svg>
