<svg xmlns="http://www.w3.org/2000/svg" viewBox="0 0 80 80" fill="none">
  <rect x="8" y="8" width="64" height="56" rx="2" fill="none" stroke="#b89a6a" stroke-width="2"/>
  <rect x="12" y="12" width="56" height="48" rx="1" fill="none" stroke="#b89a6a" stroke-width="0.8" stroke-dasharray="3 2"/>
  <rect x="14" y="14" width="18" height="22" rx="1" fill="none" stroke="#2a1a0e" stroke-width="1.5"/>
  <line x1="17" y1="20" x2="29" y2="20" stroke="#2a1a0e" stroke-width="1"/>
  <line x1="17" y1="24" x2="29" y2="24" stroke="#2a1a0e" stroke-width="1"/>
  <line x1="17" y1="28" x2="26" y2="28" stroke="#2a1a0e" stroke-width="1"/>
  <circle cx="23" cy="14" r="2.5" fill="#c4542a"/>
  <g transform="rotate(6 54 23)">
    <rect x="46" y="13" width="16" height="20" rx="1" fill="none" stroke="#2a1a0e" stroke-width="1.5"/>
    <line x1="49" y1="19" x2="59" y2="19" stroke="#2a1a0e" stroke-width="1"/>
    <line x1="49" y1="23" x2="59" y2="23" stroke="#2a1a0e" stroke-width="1"/>
    <line x1="49" y1="27" x2="56" y2="27" stroke="#2a1a0e" stroke-width="1"/>
    <circle cx="54" cy="13" r="2" fill="#b89a6a"/>
  </g>
  <g transform="rotate(-5 23 48)">
    <rect x="13" y="40" width="20" height="16" rx="1" fill="none" stroke="#2a1a0e" stroke-width="1.5"/>
    <line x1="16" y1="46" x2="30" y2="46" stroke="#2a1a0e" stroke-width="1"/>
    <line x1="16" y1="50" x2="28" y2="50" stroke="#2a1a0e" stroke-width="1"/>
    <circle cx="23" cy="40" r="2" fill="#c4542a"/>
  </g>
  <path d="M23 14 Q36 28 54 13" stroke="#c4542a" stroke-width="1" fill="none" stroke-dasharray="2 1"/>
  <path d="M23 14 Q18 28 23 40" stroke="#c4542a" stroke-width="1" fill="none" stroke-dasharray="2 1"/>
  <rect x="46" y="50" width="6" height="10" fill="none" stroke="#1a6b6b" stroke-width="1.5"/>
  <rect x="54" y="44" width="6" height="16" fill="none" stroke="#1a6b6b" stroke-width="1.5"/>
  <rect x="62" y="40" width="5" height="20" fill="none" stroke="#1a6b6b" stroke-width="1.5"/>
  <path d="M47 54 L55 48 L63 43" stroke="#c4542a" stroke-width="1.5" stroke-linecap="round" fill="none"/>
  <path d="M60 41 L63 43 L61 46" stroke="#c4542a" stroke-width="1.5" stroke-linecap="round" fill="none"/>
</svg>
