<svg xmlns="http://www.w3.org/2000/svg" viewBox="0 0 80 80" fill="none">
  <rect x="28" y="34" width="32" height="10" rx="2" fill="none" stroke="#2a1a0e" stroke-width="2" transform="rotate(-30 44 39)"/>
  <ellipse cx="22" cy="48" rx="6" ry="4" fill="none" stroke="#c4542a" stroke-width="2" transform="rotate(-30 22 48)"/>
  <rect x="54" y="22" width="8" height="6" rx="1.5" fill="none" stroke="#2a1a0e" stroke-width="1.5" transform="rotate(-30 58 25)"/>
  <line x1="40" y1="50" x2="28" y2="70" stroke="#b89a6a" stroke-width="2" stroke-linecap="round"/>
  <line x1="40" y1="50" x2="40" y2="72" stroke="#b89a6a" stroke-width="2" stroke-linecap="round"/>
  <line x1="40" y1="50" x2="52" y2="70" stroke="#b89a6a" stroke-width="2" stroke-linecap="round"/>
  <line x1="30" y1="62" x2="50" y2="62" stroke="#b89a6a" stroke-width="1.2"/>
  <circle cx="14" cy="14" r="2" fill="#c4542a"/>
  <line x1="14" y1="10" x2="14" y2="8" stroke="#c4542a" stroke-width="1"/>
  <line x1="14" y1="18" x2="14" y2="20" stroke="#c4542a" stroke-width="1"/>
  <line x1="10" y1="14" x2="8" y2="14" stroke="#c4542a" stroke-width="1"/>
  <line x1="18" y1="14" x2="20" y2="14" stroke="#c4542a" stroke-width="1"/>
  <circle cx="62" cy="14" r="7" fill="none" stroke="#b89a6a" stroke-width="1.2"/>
  <circle cx="62" cy="14" r="3" fill="none" stroke="#b89a6a" stroke-width="1"/>
  <line x1="62" y1="5" x2="62" y2="23" stroke="#b89a6a" stroke-width="0.8"/>
  <line x1="53" y1="14" x2="71" y2="14" stroke="#b89a6a" stroke-width="0.8"/>
  <line x1="22" y1="44" x2="55" y2="17" stroke="#c4542a" stroke-width="1" stroke-dasharray="3 2"/>
</svg>
