<svg xmlns="http://www.w3.org/2000/svg" viewBox="0 0 80 80" fill="none">
  <!-- Market stall awning -->
  <path d="M10 28 L40 16 L70 28 L70 32 L10 32 Z" fill="#c4542a" opacity="0.9"/>
  <path d="M16 28 L16 32M24 22 L24 32M32 18 L32 32M40 16 L40 32M48 18 L48 32M56 22 L56 32M64 28 L64 32" stroke="#f5f0e8" stroke-width="1.5"/>
  <path d="M10 32 Q13 36 16 32 Q19 36 22 32 Q25 36 28 32 Q31 36 34 32 Q37 36 40 32 Q43 36 46 32 Q49 36 52 32 Q55 36 58 32 Q61 36 64 32 Q67 36 70 32" stroke="#c4542a" stroke-width="2" fill="none"/>
  <!-- Counter -->
  <rect x="12" y="38" width="56" height="5" rx="1" fill="#b89a6a"/>
  <rect x="14" y="43" width="52" height="18" rx="1" fill="none" stroke="#b89a6a" stroke-width="1.5"/>
  <line x1="14" y1="50" x2="66" y2="50" stroke="#b89a6a" stroke-width="0.8" stroke-dasharray="4 2"/>
  <line x1="14" y1="56" x2="66" y2="56" stroke="#b89a6a" stroke-width="0.8" stroke-dasharray="4 2"/>
  <!-- Goods on counter -->
  <rect x="18" y="30" width="12" height="8" fill="none" stroke="#2a1a0e" stroke-width="1.5" rx="1"/>
  <line x1="24" y1="30" x2="24" y2="38" stroke="#2a1a0e" stroke-width="1"/>
  <path d="M35 38 Q38 30 40 27 Q42 30 45 38 Z" fill="none" stroke="#2a1a0e" stroke-width="1.5"/>
  <circle cx="40" cy="25" r="2" fill="none" stroke="#2a1a0e" stroke-width="1.2"/>
  <rect x="50" y="31" width="10" height="7" fill="none" stroke="#2a1a0e" stroke-width="1.5" rx="1"/>
  <rect x="51" y="26" width="8" height="5" fill="none" stroke="#c4542a" stroke-width="1"/>
  <line x1="55" y1="26" x2="55" y2="22" stroke="#c4542a" stroke-width="1"/>
</svg>
