<svg xmlns="http://www.w3.org/2000/svg" viewBox="0 0 80 80" fill="none">
  <path d="M8 12 Q8 6 14 6 L62 6 Q68 6 68 12 L68 40 Q68 46 62 46 L44 46 L38 54 L32 46 L14 46 Q8 46 8 40 Z" fill="none" stroke="#2a1a0e" stroke-width="2"/>
  <line x1="16" y1="18" x2="60" y2="18" stroke="#2a1a0e" stroke-width="1.5"/>
  <line x1="16" y1="26" x2="60" y2="26" stroke="#2a1a0e" stroke-width="1.5"/>
  <line x1="16" y1="34" x2="44" y2="34" stroke="#2a1a0e" stroke-width="1.5"/>
  <path d="M6 60 Q6 55 10 55 L30 55 Q34 55 34 60 L34 68 Q34 72 30 72 L20 72 L17 76 L15 72 L10 72 Q6 72 6 68 Z" fill="none" stroke="#c4542a" stroke-width="1.5"/>
  <line x1="11" y1="61" x2="29" y2="61" stroke="#c4542a" stroke-width="1"/>
  <line x1="11" y1="66" x2="24" y2="66" stroke="#c4542a" stroke-width="1"/>
  <path d="M42 60 Q42 55 46 55 L66 55 Q70 55 70 60 L70 68 Q70 72 66 72 L58 72 L55 76 L53 72 L46 72 Q42 72 42 68 Z" fill="none" stroke="#1a6b6b" stroke-width="1.5"/>
  <line x1="47" y1="61" x2="65" y2="61" stroke="#1a6b6b" stroke-width="1"/>
  <line x1="47" y1="66" x2="60" y2="66" stroke="#1a6b6b" stroke-width="1"/>
</svg>
