<svg xmlns="http://www.w3.org/2000/svg" viewBox="0 0 64 64" fill="none">
  <!-- Dark background circle -->
  <circle cx="32" cy="32" r="32" fill="#2a1a0e"/>
  <!-- Outer ring -->
  <circle cx="32" cy="32" r="29" fill="none" stroke="#b89a6a" stroke-width="2"/>
  <!-- Inner ring dashed -->
  <circle cx="32" cy="32" r="24" fill="none" stroke="#b89a6a" stroke-width="1" stroke-dasharray="3 2"/>

  <!-- Stylized claw — main arm -->
  <path d="M20 44 C18 40 18 34 22 28 C26 22 32 20 36 22 C40 24 41 28 39 32 C37 36 33 37 30 35 C27 33 27 30 29 28 C31 26 34 27 34 29"
        stroke="#c4542a" stroke-width="3.5" stroke-linecap="round" fill="none"/>
  <!-- Claw tip upper -->
  <path d="M34 29 C36 27 39 26 40 24"
        stroke="#c4542a" stroke-width="3" stroke-linecap="round" fill="none"/>
  <!-- Claw tip lower -->
  <path d="M34 29 C35 32 37 34 39 33"
        stroke="#c4542a" stroke-width="2.5" stroke-linecap="round" fill="none"/>
  <!-- Base -->
  <path d="M20 44 C22 46 25 46 27 44"
        stroke="#c4542a" stroke-width="3" stroke-linecap="round" fill="none"/>

  <!-- Gold cardinal dots -->
  <circle cx="32" cy="8" r="1.5" fill="#b89a6a"/>
  <circle cx="32" cy="56" r="1.5" fill="#b89a6a"/>
  <circle cx="8" cy="32" r="1.5" fill="#b89a6a"/>
  <circle cx="56" cy="32" r="1.5" fill="#b89a6a"/>
</svg>
